# File created by Blade
# Date/Time:  Fri Jan 16 17:18:57 2015
#---------------------------------------------------------
:version 1.10
:name HOM
:units
  mass 1.0
  length 1.000000
  angle deg
:documentation
     Acclaim Skeleton File
:root
   axis xyz
   order TX TY TZ RX RY RZ
   position 0.000000 0.000000 0.000000
   orientation 0 0 0
:bonedata
   begin
      id 1
      name Spine_dum
      direction 0.000000 1.000000 0.000000
      length 7.170412
      axis 0.0 0.0 0.0 xyz
   end
   begin
      id 2
      name LeftUpLeg_dum
      direction 1.000000 0.000000 0.000000
      length 4.318350
      axis 0.0 0.0 0.0 xyz
   end
   begin
      id 3
      name RightUpLeg_dum
      direction -1.000000 0.000000 0.000000
      length 4.318350
      axis 0.0 0.0 0.0 xyz
   end
   begin
      id 4
      name Spine
      direction 0.000000 1.000000 0.000000
      length 0.000000
      axis 0.0 0.0 0.0 xyz
      dof rx ry rz
   end
   begin
      id 5
      name Spine_dum1
      direction 0.000000 1.000000 0.000000
      length 14.276153
      axis 0.0 0.0 0.0 xyz
   end
   begin
      id 6
      name Spine_dum2
      direction 0.000000 1.000000 0.000000
      length 10.718243
      axis 0.0 0.0 0.0 xyz
   end
   begin
      id 7
      name Spine_dum3
      direction 0.000000 1.000000 0.000000
      length 10.718243
      axis 0.0 0.0 0.0 xyz
   end
   begin
      id 8
      name Head
      direction 0.000000 1.000000 0.000000
      length 4.527550
      axis 0.0 0.0 0.0 xyz
      dof rx ry rz
   end
   begin
      id 9
      name LeftShoulder
      direction 1.000000 0.000000 0.000000
      length 7.058872
      axis 0.0 0.0 -90.0 xyz
      dof rx ry rz
   end
   begin
      id 10
      name LeftArm
      direction 1.000000 0.000000 0.000000
      length 10.955525
      axis 0.0 0.0 -90.0 xyz
      dof rx ry rz
   end
   begin
      id 11
      name LeftForeArm
      direction 1.000000 0.000000 0.000000
      length 8.193716
      axis 0.0 0.0 -90.0 xyz
      dof ry rz rx
   end
   begin
      id 12
      name LeftHand
      direction 0.000000 0.000000 0.000000
      length 0.000000
      axis 0.0 0.0 -90.0 xyz
      dof rx ry rz
   end
   begin
      id 13
      name LeftHand_dum1
      direction 0.000000 0.000000 0.000000
      length 0.000000
      axis 0.0 0.0 -90.0 xyz
   end
   begin
      id 14
      name LeftHand_dum2
      direction 1.000000 0.000000 0.000000
      length 3.937000
      axis 0.0 0.0 -90.0 xyz
   end
   begin
      id 15
      name LeftHandThumb1
      direction 0.000000 0.000000 1.000000
      length 3.937000
      axis 0.0 0.0 -90.0 xyz
      dof rx rz ry
   end
   begin
      id 16
      name RightShoulder
      direction -1.000000 0.000000 0.000000
      length 7.058872
      axis 0.0 0.0 90.0 xyz
      dof rx ry rz
   end
   begin
      id 17
      name RightArm
      direction -1.000000 0.000000 0.000000
      length 10.955525
      axis 0.0 0.0 90.0 xyz
      dof rx ry rz
   end
   begin
      id 18
      name RightForeArm
      direction -1.000000 0.000000 0.000000
      length 8.193716
      axis 0.0 0.0 90.0 xyz
      dof ry rz rx
   end
   begin
      id 19
      name RightHand
      direction 0.000000 0.000000 0.000000
      length 0.000000
      axis 0.0 0.0 90.0 xyz
      dof rx ry rz
   end
   begin
      id 20
      name RightHand_dum1
      direction 0.000000 0.000000 0.000000
      length 0.000000
      axis 0.0 0.0 90.0 xyz
   end
   begin
      id 21
      name RightHand_dum2
      direction -1.000000 0.000000 0.000000
      length 3.937000
      axis 0.0 0.0 90.0 xyz
   end
   begin
      id 22
      name RightHandThumb1
      direction 0.000000 0.000000 1.000000
      length 3.937000
      axis 0.0 0.0 90.0 xyz
      dof rx rz ry
   end
   begin
      id 23
      name LeftUpLeg
      direction 0.000000 -1.000000 0.000000
      length 17.323638
      axis 0.0 0.0 0.0 xyz
      dof rx ry rz
   end
   begin
      id 24
      name LeftLeg
      direction 0.000000 -1.000000 0.000000
      length 16.270368
      axis 0.0 0.0 0.0 xyz
      dof rx ry rz
   end
   begin
      id 25
      name LeftFoot
      direction 0.000000 -0.258819 0.965926
      length 4.922846
      axis 15.0 0.0 0.0 xyz
      dof rx ry rz
   end
   begin
      id 26
      name LeftToeBase
      direction 0.000000 0.000000 1.000000
      length 2.952750
      axis 0.0 0.0 0.0 xyz
      dof rx ry rz
   end
   begin
      id 27
      name RightUpLeg
      direction 0.000000 -1.000000 0.000000
      length 17.323638
      axis 0.0 0.0 0.0 xyz
      dof rx ry rz
   end
   begin
      id 28
      name RightLeg
      direction 0.000000 -1.000000 0.000000
      length 16.270368
      axis 0.0 0.0 0.0 xyz
      dof rx ry rz
   end
   begin
      id 29
      name RightFoot
      direction 0.000000 -0.258819 0.965926
      length 4.922846
      axis 15.0 0.0 0.0 xyz
      dof rx ry rz
   end
   begin
      id 30
      name RightToeBase
      direction 0.000000 0.000000 1.000000
      length 2.952750
      axis 0.0 0.0 0.0 xyz
      dof rx ry rz
   end
:hierarchy
   begin
      root Spine_dum LeftUpLeg_dum RightUpLeg_dum
      Spine_dum Spine
      LeftUpLeg_dum LeftUpLeg
      RightUpLeg_dum RightUpLeg
      Spine Spine_dum1 Spine_dum2 Spine_dum3
      Spine_dum1 Head
      Spine_dum2 LeftShoulder
      Spine_dum3 RightShoulder
      LeftShoulder LeftArm
      LeftArm LeftForeArm
      LeftForeArm LeftHand
      LeftHand LeftHand_dum1 LeftHand_dum2
      LeftHand_dum1 LeftHandThumb1
      RightShoulder RightArm
      RightArm RightForeArm
      RightForeArm RightHand
      RightHand RightHand_dum1 RightHand_dum2
      RightHand_dum1 RightHandThumb1
      LeftUpLeg LeftLeg
      LeftLeg LeftFoot
      LeftFoot LeftToeBase
      RightUpLeg RightLeg
      RightLeg RightFoot
      RightFoot RightToeBase
   end

# File created by Blade
# Date/Time:  Fri Jan 16 17:19:08 2015
# Frame Rate: 120.000 fps
#------------------------------------------------------
:FULLY-SPECIFIED
:DEGREES
545
root -5.522900 35.216246 -9.767142 -2.237977 -5.669826 -5.857354
Spine -0.534528 -0.856704 9.289421
Head 4.151601 2.672567 -7.988104
LeftShoulder -21.520245 14.774232 -16.566610
LeftArm 20.301962 -7.636448 -75.632346
LeftForeArm 16.152608 -0.000000 11.431497
LeftHand 0.316541 -0.000000 -5.313560
LeftHandThumb1 -26.253704 0.000000 33.147579
RightShoulder -3.958865 2.033202 -3.234303
RightArm 0.178013 3.436667 42.255415
RightForeArm -1.040858 -0.000000 77.106216
RightHand 1.296615 -0.000000 -2.463885
RightHandThumb1 -24.326973 -0.000000 -32.862282
LeftUpLeg 12.615793 14.588456 7.601465
LeftLeg -8.830313 -0.000000 0.000000
LeftFoot -15.983929 27.320931 -8.769348
LeftToeBase 22.697351 -0.000000 -0.000000
RightUpLeg 9.335703 -3.225722 4.398154
RightLeg -4.992033 -0.000000 0.000000
RightFoot -4.295432 -28.936572 3.069476
RightToeBase 13.953904 -0.000000 -0.000000
546
root -5.524815 35.216709 -9.770507 -2.192032 -5.705960 -5.850539
Spine -0.611926 -0.880444 9.321735
Head 4.203463 2.695405 -8.043013
LeftShoulder -21.517652 14.744532 -16.583407
LeftArm 20.293333 -7.641321 -75.599392
LeftForeArm 16.111727 -0.000000 11.410648
LeftHand 0.377391 -0.000000 -5.308908
LeftHandThumb1 -26.253704 0.000000 33.147579
RightShoulder -3.911801 2.128563 -3.374742
RightArm 0.138091 3.826360 42.206894
RightForeArm -0.852942 -0.000000 79.885087
RightHand 1.346709 -0.000000 -2.416084
RightHandThumb1 -24.326973 -0.000000 -32.862282
LeftUpLeg 12.566500 14.605616 7.583982
LeftLeg -8.821802 -0.000000 0.000000
LeftFoot -15.988860 27.343610 -8.787884
LeftToeBase 22.692559 -0.000000 -0.000000
RightUpLeg 9.284966 -3.198944 4.398030
RightLeg -5.000012 -0.000000 0.000000
RightFoot -4.271536 -28.933210 3.041734
RightToeBase 13.911276 -0.000000 -0.000000
547
root -5.525996 35.218096 -9.768554 -2.188101 -5.717423 -5.854844
Spine -0.651896 -0.929796 9.374912
Head 4.261917 2.723757 -8.107097
LeftShoulder -21.521276 14.705357 -16.617558
LeftArm 20.280342 -7.655404 -75.565696
LeftForeArm 16.110672 -0.000000 11.416104
LeftHand 0.393080 0.000000 -5.335574
LeftHandThumb1 -26.253704 0.000000 33.147579
RightShoulder -3.852388 2.265959 -3.540754
RightArm 0.048476 4.186321 42.178505
RightForeArm -0.679848 0.000000 82.683325
RightHand 1.539925 -0.000000 -2.342464
RightHandThumb1 -24.326973 -0.000000 -32.862282
LeftUpLeg 12.570454 14.598978 7.588003
LeftLeg -8.824260 -0.000000 0.000000
LeftFoot -15.987568 27.353139 -8.818188
LeftToeBase 22.668132 -0.000000 -0.000000
RightUpLeg 9.291301 -3.223230 4.399736
RightLeg -5.015639 -0.000000 0.000000
RightFoot -4.258587 -28.889047 3.066878
RightToeBase 13.904457 -0.000000 -0.000000
548
root -5.527015 35.218629 -9.767783 -2.167700 -5.741292 -5.854641
Spine -0.705527 -0.952564 9.422147
Head 4.314959 2.740740 -8.173090
LeftShoulder -21.522871 14.651953 -16.628504
LeftArm 20.254112 -7.620431 -75.536987
LeftForeArm 16.039185 -0.000000 11.423578
LeftHand 0.336784 -0.000000 -5.333678
LeftHandThumb1 -26.253704 0.000000 33.147579
RightShoulder -3.815834 2.416693 -3.789856
RightArm 0.028397 4.513006 42.270922
RightForeArm -0.617229 -0.000000 85.398590
RightHand 1.648301 -0.000000 -2.513935
RightHandThumb1 -24.326973 -0.000000 -32.862282
LeftUpLeg 12.561042 14.620185 7.585783
LeftLeg -8.834988 -0.000000 0.000000
LeftFoot -15.993189 27.362955 -8.849330
LeftToeBase 22.667858 -0.000000 -0.000000
RightUpLeg 9.279280 -3.204814 4.398582
RightLeg -5.030394 -0.000000 0.000000
RightFoot -4.246941 -28.868008 3.073098
RightToeBase 13.914316 -0.000000 -0.000000
549
root -5.528186 35.219383 -9.768086 -2.150436 -5.768067 -5.857448
Spine -0.755020 -0.963807 9.473864
Head 4.380523 2.753379 -8.245448
LeftShoulder -21.513537 14.610937 -16.643121
LeftArm 20.242003 -7.608776 -75.520055
LeftForeArm 16.024079 0.000000 11.437822
LeftHand 0.319907 -0.000000 -5.275884
LeftHandThumb1 -26.253704 0.000000 33.147579
RightShoulder -3.750016 2.504582 -3.894403
RightArm 0.029958 4.862697 42.095435
RightForeArm -0.539796 -0.000000 88.199596
RightHand 1.779035 0.000000 -2.384743
RightHandThumb1 -24.326973 -0.000000 -32.862282
LeftUpLeg 12.553848 14.633292 7.585797
LeftLeg -8.841474 -0.000000 0.000000
LeftFoot -15.989089 27.373783 -8.854344
LeftToeBase 22.630378 -0.000000 -0.000000
RightUpLeg 9.264594 -3.191046 4.402564
RightLeg -5.040369 -0.000000 0.000000
RightFoot -4.239388 -28.836311 3.168011
RightToeBase 13.764386 -0.000000 -0.000000
550
root -5.530096 35.220329 -9.768427 -2.121134 -5.787032 -5.857804
Spine -0.816451 -0.980127 9.509272
Head 4.431311 2.774116 -8.289968
LeftShoulder -21.527788 14.573038 -16.650110
LeftArm 20.250574 -7.577207 -75.510931
LeftForeArm 15.960366 -0.000000 11.444742
LeftHand 0.311344 0.000000 -5.350715
LeftHandThumb1 -26.253704 0.000000 33.147579
RightShoulder -3.689516 2.615844 -4.013953
RightArm 0.054622 5.146541 41.964827
RightForeArm -0.531447 -0.000000 90.966155
RightHand 1.807044 -0.000000 -2.666885
RightHandThumb1 -24.326973 -0.000000 -32.862282
LeftUpLeg 12.528839 14.638983 7.587691
LeftLeg -8.830824 -0.000000 0.000000
LeftFoot -15.949575 27.351998 -8.796260
LeftToeBase 22.632198 -0.000000 -0.000000
RightUpLeg 9.234243 -3.182529 4.408712
RightLeg -5.042636 -0.000000 0.000000
RightFoot -4.228899 -28.843250 3.106273
RightToeBase 13.872768 -0.000000 -0.000000
551
root -5.533226 35.221225 -9.771853 -2.067464 -5.793491 -5.870421
Spine -0.911807 -1.005352 9.562774
Head 4.503476 2.798667 -8.347017
LeftShoulder -21.527738 14.562195 -16.664090
LeftArm 20.260008 -7.542690 -75.494703
LeftForeArm 15.894435 -0.000000 11.492000
LeftHand 0.303163 -0.000000 -5.326103
LeftHandThumb1 -26.253704 0.000000 33.147579
RightShoulder -3.623765 2.766055 -4.225386
RightArm 0.100133 5.565457 42.052841
RightForeArm -0.724732 0.000000 93.660854
RightHand 1.856099 -0.000000 -2.625855
RightHandThumb1 -24.326973 -0.000000 -32.862282
LeftUpLeg 12.477171 14.619321 7.587416
LeftLeg -8.843638 -0.000000 0.000000
LeftFoot -15.940198 27.379179 -8.800349
LeftToeBase 22.606038 -0.000000 -0.000000
RightUpLeg 9.172485 -3.190240 4.429014
RightLeg -5.034980 -0.000000 0.000000
RightFoot -4.219591 -28.827320 3.089182
RightToeBase 13.901531 -0.000000 -0.000000
552
root -5.536227 35.222033 -9.772970 -2.028514 -5.802747 -5.881084
Spine -0.988335 -1.007350 9.613558
Head 4.564656 2.790021 -8.408168
LeftShoulder -21.546400 14.528616 -16.674694
LeftArm 20.285144 -7.428006 -75.450715
LeftForeArm 15.844620 0.000000 11.503195
LeftHand 0.249013 -0.000000 -5.321729
LeftHandThumb1 -26.253704 0.000000 33.147579
RightShoulder -3.590153 2.904453 -4.423729
RightArm 0.197607 5.970317 42.153422
RightForeArm -0.827135 -0.000000 96.372175
RightHand 1.873717 -0.000000 -2.562326
RightHandThumb1 -24.326973 -0.000000 -32.862282
LeftUpLeg 12.450552 14.615238 7.590723
LeftLeg -8.867619 -0.000000 0.000000
LeftFoot -15.920569 27.399749 -8.812842
LeftToeBase 22.598179 -0.000000 -0.000000
RightUpLeg 9.129327 -3.186269 4.446012
RightLeg -5.029249 -0.000000 0.000000
RightFoot -4.203034 -28.820932 3.098900
RightToeBase 13.854652 -0.000000 -0.000000
553
root -5.538382 35.222941 -9.772398 -2.007817 -5.809450 -5.881136
Spine -1.046639 -1.011095 9.649626
Head 4.619555 2.805816 -8.460922
LeftShoulder -21.527427 14.486152 -16.664749
LeftArm 20.259678 -7.381564 -75.436513
LeftForeArm 15.856896 -0.000000 11.565230
LeftHand 0.287908 -0.000000 -5.231391
LeftHandThumb1 -26.253704 0.000000 33.147579
RightShoulder -3.551727 3.068301 -4.612586
RightArm 0.302276 6.311720 42.197185
RightForeArm -0.926402 -0.000000 99.023128
RightHand 1.987645 -0.000000 -2.572721
RightHandThumb1 -24.326973 -0.000000 -32.862282
LeftUpLeg 12.436775 14.605136 7.585538
LeftLeg -8.875191 -0.000000 0.000000
LeftFoot -15.912621 27.416441 -8.823520
LeftToeBase 22.587951 -0.000000 -0.000000
RightUpLeg 9.110236 -3.151243 4.454464
RightLeg -5.029991 -0.000000 0.000000
RightFoot -4.203420 -28.847048 3.093483
RightToeBase 13.874372 -0.000000 -0.000000
554
root -5.541045 35.223303 -9.769747 -1.983653 -5.815419 -5.873959
Spine -1.121064 -0.999682 9.666545
Head 4.696621 2.790654 -8.496222
LeftShoulder -21.511056 14.467208 -16.646243
LeftArm 20.253033 -7.325507 -75.428289
LeftForeArm 15.867634 -0.000000 11.628155
LeftHand 0.324045 -0.000000 -5.248711
LeftHandThumb1 -26.253704 0.000000 33.147579
RightShoulder -3.515569 3.182836 -4.767118
RightArm 0.426180 6.473683 42.076512
RightForeArm -0.997098 0.000000 101.671633
RightHand 1.982647 -0.000000 -2.878199
RightHandThumb1 -24.326973 -0.000000 -32.862282
LeftUpLeg 12.426202 14.618652 7.579730
LeftLeg -8.890234 -0.000000 0.000000
LeftFoot -15.897745 27.400880 -8.843210
LeftToeBase 22.549103 -0.000000 -0.000000
RightUpLeg 9.094575 -3.127672 4.455458
RightLeg -5.039143 -0.000000 0.000000
RightFoot -4.196355 -28.862347 3.079213
RightToeBase 13.870520 -0.000000 -0.000000
555
root -5.541643 35.224811 -9.768179 -1.956227 -5.821598 -5.871456
Spine -1.195208 -0.934089 9.701452
Head 4.779084 2.738851 -8.549714
LeftShoulder -21.443277 14.455908 -16.633434
LeftArm 20.251847 -7.257589 -75.413062
LeftForeArm 15.791106 -0.000000 11.681306
LeftHand 0.299844 -0.000000 -5.235979
LeftHandThumb1 -26.253704 0.000000 33.147579
RightShoulder -3.535606 3.333701 -4.980150
RightArm 0.587829 6.848176 42.212411
RightForeArm -0.893675 0.000000 104.235720
RightHand 2.157178 0.000000 -2.829036
RightHandThumb1 -24.326973 -0.000000 -32.862282
LeftUpLeg 12.408713 14.621189 7.570808
LeftLeg -8.907204 -0.000000 0.000000
LeftFoot -15.900436 27.404866 -8.896235
LeftToeBase 22.601437 -0.000000 -0.000000
RightUpLeg 9.064966 -3.115526 4.454934
RightLeg -5.030626 -0.000000 0.000000
RightFoot -4.202215 -28.856236 3.118023
RightToeBase 13.835648 -0.000000 -0.000000
556
root -5.544371 35.224542 -9.764780 -1.994814 -5.794311 -5.855301
Spine -1.171708 -0.987253 9.711364
Head 4.780654 2.744945 -8.603925
LeftShoulder -21.452741 14.389914 -16.629733
LeftArm 20.264880 -7.187656 -75.393950
LeftForeArm 15.696007 -0.000000 11.742850
LeftHand 0.289330 -0.000000 -5.233978
LeftHandThumb1 -26.253704 0.000000 33.147579
RightShoulder -3.473022 3.519420 -5.158009
RightArm 0.764121 7.188107 42.304703
RightForeArm -0.813484 -0.000000 106.789183
RightHand 2.198961 -0.000000 -2.798221
RightHandThumb1 -24.326973 -0.000000 -32.862282
LeftUpLeg 12.449186 14.588686 7.566273
LeftLeg -8.914357 -0.000000 0.000000
LeftFoot -15.883043 27.407364 -8.903302
LeftToeBase 22.579607 -0.000000 -0.000000
RightUpLeg 9.115280 -3.124764 4.442017
RightLeg -5.041799 -0.000000 0.000000
RightFoot -4.216584 -28.879569 3.103146
RightToeBase 13.886338 -0.000000 -0.000000
